<svg width="22" height="22" viewBox="0 0 22 22" fill="none" xmlns="http://www.w3.org/2000/svg">
<path d="M13.0119 0L11.5162 6.35375L12.206 8.70631L14.1686 3.81163L13.0119 0ZM6.69524 1.0887L6.78673 6.30777L10.8734 8.02952L6.69524 1.0887ZM14.8235 7.06407L13.4925 8.97705L17.3353 7.13781L14.8235 7.06407ZM10.3462 8.90925C7.65896 10.8887 4.74168 12.4447 1.36854 12.7424C0.77433 12.7949 0.390404 13.1338 0.183185 13.4584C-0.4382 14.4322 0.556566 15.864 2.63177 15.0318C0.129735 16.6031 2.25889 18.8597 3.76354 17.0826C5.30664 15.2604 7.14132 13.5685 9.06974 12.7646L9.64191 11.4333L8.16326 11.729L10.3461 8.90929L10.3462 8.90925ZM13.0331 9.94528L18.4572 12.8562L18.0767 10.3511L13.0331 9.94528ZM12.1672 11.1428L12.4277 12.7784L10.6225 12.1358C13.7955 14.4678 15.9486 17.4039 17.9181 21.1317C18.9389 23.0637 21.1586 21.4362 19.4628 19.5154C21.3286 21.1173 22.9823 18.3371 21.3053 17.5878C18.4366 16.3059 15.9859 14.6323 14.5123 12.4279H14.5122L12.1672 11.1429V11.1428ZM9.74723 13.3515V13.3517L9.74732 13.3515L9.74723 13.3515ZM9.74723 13.3517L7.03203 17.0893L9.13995 16.6035L9.74723 13.3517ZM10.6018 13.3957L11.4579 18.9779L13.099 18.0528L10.6018 13.3957Z" fill="#E8E4DD"/>
</svg>
