<svg width="22" height="22" viewBox="0 0 22 22" fill="none" xmlns="http://www.w3.org/2000/svg">
<path d="M18.2934 0L0 4.27993L11.6687 16.7128L8.90395 19.5025L22 22L19.5249 8.78559L18.0631 10.2607L19.7697 14.2267L16.097 10.137L12.3599 6.43475L14.2611 10.1912L7.98742 4.82668L18.2934 0ZM9.85088 9.02917C10.383 9.02917 10.8142 9.46418 10.8142 10.0008C10.8142 10.1159 10.7942 10.2262 10.7579 10.3287L12.4053 11.9275L13.9373 10.4876L14.5277 11.1266L13.7226 11.8832L20.1309 18.1289L21.0076 20.9574L18.2032 20.142L11.69 13.7935L10.8514 14.5815L10.261 13.9426L11.7707 12.5238L10.1294 10.931C10.0391 10.9585 9.94528 10.9724 9.85093 10.9724C9.31894 10.9724 8.88764 10.5373 8.88764 10.0008C8.88764 9.46418 9.31889 9.02917 9.85093 9.02917H9.85088ZM13.043 12.5632L12.4423 13.1924L18.8631 19.4271L19.4639 18.7979L13.043 12.5632Z" fill="#E8E4DD"/>
</svg>
