<svg width="22" height="22" viewBox="0 0 22 22" fill="none" xmlns="http://www.w3.org/2000/svg">
<path d="M0 4.68702e-05V0.978999L3.12744 2.55573L2.45405 3.98465L9.69739 5.11156L4.2653 0.143689L3.50195 1.76451L0 4.68702e-05ZM16.4793 1.52416C16.2736 1.52529 16.0686 1.53054 15.8654 1.54025C13.7714 1.64047 11.8605 2.22212 10.6046 3.35897C10.6126 6.97905 10.8394 10.5125 11.6785 13.38C12.5136 16.2343 13.9228 18.3966 16.3081 19.4721C18.443 18.5214 19.8765 16.1129 20.765 12.9742C21.6505 9.84575 21.982 6.04568 22 2.46358C20.3854 1.89117 18.5044 1.54067 16.6854 1.52426C16.6167 1.52355 16.5479 1.52379 16.4793 1.52416ZM16.1774 2.83575C16.2261 2.83547 16.2753 2.83537 16.324 2.83575C17.6887 2.84818 19.0821 3.15056 20.2729 3.65361L20.5386 3.7664V4.05809C20.5386 6.79845 20.3261 9.73742 19.6997 12.2077C19.0733 14.6779 18.0351 16.7331 16.2456 17.5392L16.0643 17.6197L15.8857 17.5363C13.9988 16.6485 12.9232 14.7792 12.3287 12.5111C11.7341 10.2429 11.5943 7.53683 11.5943 4.7967V4.62375L11.7104 4.49774C12.7105 3.41224 14.1968 2.93156 15.7421 2.84902C15.887 2.84124 16.0317 2.83683 16.1775 2.8358L16.1774 2.83575ZM16.3168 3.71223C16.1393 3.71036 15.963 3.71458 15.7885 3.72396C14.4581 3.79496 13.2609 4.19915 12.4651 4.98124C12.4718 7.62537 12.6212 10.2028 13.1675 12.2868C13.7046 14.336 14.5999 15.8716 16.0701 16.6481C17.3653 15.9556 18.287 14.2423 18.8579 11.9908C19.433 9.72317 19.6495 6.96493 19.6649 4.35705C18.6414 3.96486 17.4575 3.72396 16.3168 3.71223ZM3.45546 6.35876L3.32338 7.9429L4.65043e-05 7.63376V8.51306L3.24945 8.81648L3.11737 10.3933L9.94283 8.9454L3.45546 6.35876ZM3.91848 12.3688L4.2914 13.6599L0 14.9086V15.8215L4.53378 14.4997L4.97204 16.0165L10.4637 12.4201L3.91848 12.3688V12.3688ZM11.8802 16.3593L5.139 18.4433L6.02278 19.7798L2.76757 21.9736L2.78503 22H4.29289L6.50465 20.5096L7.38852 21.8476L11.8803 16.3594L11.8802 16.3593Z" fill="#E8E4DD"/>
</svg>
