<svg width="20" height="20" viewBox="0 0 20 20" fill="none" xmlns="http://www.w3.org/2000/svg">
<path d="M0 0C3.18989 1.83933 5.64734 4.35804 5.77086 6.91155C3.4692 6.94149 2.4217 6.26201 1.06085 4.61239C1.87957 8.80813 3.61946 11.0976 5.71312 11.6705C4.69666 12.8863 2.90005 13.0435 1.20381 12.813C2.86189 14.3423 5.59741 16.0098 8.09048 16.6336C7.30294 17.3252 6.30098 17.7388 4.94955 17.9481C17.3893 23.1003 22.8046 18.4111 18.5857 5.44351C18.0298 6.59427 17.2411 7.29691 15.7984 8.0357C15.4332 5.54278 14.3476 1.17789 11.38 0.29294C12.5053 2.17343 12.3953 4.77608 11.1953 6.55644C9.91009 3.36426 4.99024 0.278965 0 0ZM14.2395 10.6688C15.4463 10.663 16.6448 11.1654 17.4801 12.1439C18.9651 13.8833 18.7253 16.4551 16.9431 17.9044C15.1608 19.3538 12.5258 19.1198 11.0409 17.3804C9.55591 15.6408 9.79554 13.0691 11.5778 11.6198C12.3575 10.9857 13.3009 10.6734 14.2395 10.6688Z" fill="#E8E4DD"/>
</svg>
