<svg width="20" height="18" viewBox="0 0 20 18" fill="none" xmlns="http://www.w3.org/2000/svg">
<path d="M8.21431 0.000643075C5.51196 0.0353864 3.58191 1.57826 3.80803 3.99342C-4.10785 11.5781 1.89851 20.9201 7.54751 17.1271C18.1438 18.2124 22.0168 11.1024 19.0159 7.71649C15.9347 2.14928 11.5027 -0.0416418 8.21431 0.000643075ZM9.80919 2.35465C12.5117 2.33124 16.0583 3.89146 18.5934 7.30646C17.1166 6.05174 14.4753 5.51319 10.6555 6.52589C21.219 6.32044 17.8438 17.0777 7.68028 17.0358C8.74738 16.2794 9.79776 15.0496 10.7346 13.2446C4.35833 20.1265 -1.20555 11.1232 3.85893 4.36126C4.1365 5.92318 5.28231 7.81227 7.63368 9.87572C4.20874 5.09231 6.29443 2.38503 9.80924 2.35469L9.80919 2.35465ZM10.7275 7.23833C9.44243 7.22429 8.28067 8.08054 7.99818 9.33897C7.67527 10.7772 8.62293 12.1963 10.1143 12.5077C11.6057 12.819 13.076 11.9051 13.3989 10.467C13.7217 9.02885 12.7741 7.60969 11.2827 7.29835C11.1002 7.26031 10.9142 7.24017 10.7275 7.23833Z" fill="#E8E4DD"/>
</svg>
